HIERARCHY
ROOT Hips
{
	OFFSET 0.000000 71.427986 0.000000
	CHANNELS 6 Xposition Yposition Zposition Xrotation Yrotation Zrotation
	JOINT Pelvis
	{
		OFFSET 0.000000 0.000000 0.000000
		CHANNELS 3 Xrotation Yrotation Zrotation
		JOINT LeftUpLeg
		{
			OFFSET 6.797100 -2.508499 -1.318700
			CHANNELS 3 Xrotation Yrotation Zrotation
			JOINT LeftLeg
			{
				OFFSET 0.069008 -29.241863 0.690200
				CHANNELS 3 Xrotation Yrotation Zrotation
				JOINT LeftFoot
				{
					OFFSET -0.069008 -29.568123 -0.266800
					CHANNELS 3 Xrotation Yrotation Zrotation
					JOINT LeftToeBase
					{
						OFFSET 3.145500 -8.631000 16.059900
						CHANNELS 3 Xrotation Yrotation Zrotation
						End Site
						{
							OFFSET 0.000000 18.501587 0.000000
						}
					}
				}
			}
			JOINT Left_ShortSleeve
			{
				OFFSET 0.265923 -10.480953 1.153800
				CHANNELS 3 Xrotation Yrotation Zrotation
				End Site
				{
					OFFSET 1.725763 19.823879 0.000000
				}
			}
		}
		JOINT RightUpLeg
		{
			OFFSET -6.797100 -2.508499 -1.318700
			CHANNELS 3 Xrotation Yrotation Zrotation
			JOINT RightLeg
			{
				OFFSET -0.082453 -29.241932 0.688000
				CHANNELS 3 Xrotation Yrotation Zrotation
				JOINT RightFoot
				{
					OFFSET 0.082453 -29.568058 -0.264600
					CHANNELS 3 Xrotation Yrotation Zrotation
					JOINT RightToeBase
					{
						OFFSET -3.115300 -8.682800 16.113400
						CHANNELS 3 Xrotation Yrotation Zrotation
						End Site
						{
							OFFSET 0.000000 18.567114 0.000000
						}
					}
				}
			}
			JOINT Right_ShortSleeve
			{
				OFFSET -0.265923 -10.480953 1.153800
				CHANNELS 3 Xrotation Yrotation Zrotation
				End Site
				{
					OFFSET -1.725766 19.823910 0.000000
				}
			}
		}
	}
	JOINT Spine
	{
		OFFSET 0.000000 13.368103 0.470500
		CHANNELS 3 Xrotation Yrotation Zrotation
		JOINT Spine1
		{
			OFFSET 0.147000 13.837402 0.538800
			CHANNELS 3 Xrotation Yrotation Zrotation
			JOINT Spine2
			{
				OFFSET 0.168000 16.242897 -1.435500
				CHANNELS 3 Xrotation Yrotation Zrotation
				JOINT Neck
				{
					OFFSET 0.217200 18.631500 -1.679100
					CHANNELS 3 Xrotation Yrotation Zrotation
					JOINT Head
					{
						OFFSET 0.000000 6.599396 1.385900
						CHANNELS 3 Xrotation Yrotation Zrotation
						JOINT Hat
						{
							OFFSET -0.532200 27.220596 -10.096100
							CHANNELS 3 Xrotation Yrotation Zrotation
							End Site
							{
								OFFSET 0.000000 22.029861 0.000000
							}
						}
						JOINT HairD
						{
							OFFSET -10.777400 17.437393 -1.325900
							CHANNELS 3 Xrotation Yrotation Zrotation
							JOINT HairD1
							{
								OFFSET -3.290299 -11.051193 1.062200
								CHANNELS 3 Xrotation Yrotation Zrotation
								End Site
								{
									OFFSET 0.000000 11.579437 0.000000
								}
							}
						}
						JOINT HairB
						{
							OFFSET -10.777400 17.437393 1.467900
							CHANNELS 3 Xrotation Yrotation Zrotation
							JOINT HairB1
							{
								OFFSET -1.561200 -12.956299 3.590200
								CHANNELS 3 Xrotation Yrotation Zrotation
								End Site
								{
									OFFSET 0.000000 13.534866 0.000000
								}
							}
						}
						JOINT HairA
						{
							OFFSET 9.713100 17.437393 1.467900
							CHANNELS 3 Xrotation Yrotation Zrotation
							JOINT HairA1
							{
								OFFSET 1.561200 -12.956299 3.590200
								CHANNELS 3 Xrotation Yrotation Zrotation
								End Site
								{
									OFFSET 0.000000 13.534866 0.000000
								}
							}
						}
						JOINT HairC
						{
							OFFSET 9.713100 17.437393 -1.325900
							CHANNELS 3 Xrotation Yrotation Zrotation
							JOINT HairC1
							{
								OFFSET 3.290300 -11.051193 1.062200
								CHANNELS 3 Xrotation Yrotation Zrotation
								End Site
								{
									OFFSET 0.000000 11.579437 0.000000
								}
							}
						}
					}
				}
				JOINT LeftShoulder
				{
					OFFSET 5.101800 15.108002 -2.763700
					CHANNELS 3 Xrotation Yrotation Zrotation
					JOINT LeftArm
					{
						OFFSET 9.825497 2.506317 -1.597400
						CHANNELS 3 Xrotation Yrotation Zrotation
						JOINT LeftForeArm
						{
							OFFSET 21.966244 0.000000 0.000000
							CHANNELS 3 Xrotation Yrotation Zrotation
							JOINT LeftHand
							{
								OFFSET 33.879036 0.000000 0.000000
								CHANNELS 3 Xrotation Yrotation Zrotation
								JOINT LeftHandThumb1
								{
									OFFSET 6.715286 -2.359680 3.363841
									CHANNELS 3 Xrotation Yrotation Zrotation
									JOINT LeftHandThumb2
									{
										OFFSET 2.507072 -1.447464 1.447461
										CHANNELS 3 Xrotation Yrotation Zrotation
										JOINT LeftHandThumb3
										{
											OFFSET 2.898338 -1.673355 1.673357
											CHANNELS 3 Xrotation Yrotation Zrotation
											End Site
											{
												OFFSET -0.295959 3.727692 -0.131651
											}
										}
									}
								}
								JOINT LeftHandIndex1
								{
									OFFSET 14.190811 -0.254547 3.840278
									CHANNELS 3 Xrotation Yrotation Zrotation
									JOINT LeftHandIndex2
									{
										OFFSET 3.551727 0.000000 -0.000000
										CHANNELS 3 Xrotation Yrotation Zrotation
										JOINT LeftHandIndex3
										{
											OFFSET 2.894196 0.000000 0.000000
											CHANNELS 3 Xrotation Yrotation Zrotation
											End Site
											{
												OFFSET -1.000603 2.690872 0.366626
											}
										}
									}
								}
								JOINT LeftHandMiddle1
								{
									OFFSET 13.776489 0.000000 0.000000
									CHANNELS 3 Xrotation Yrotation Zrotation
									JOINT LeftHandMiddle2
									{
										OFFSET 3.438232 0.000000 0.000000
										CHANNELS 3 Xrotation Yrotation Zrotation
										JOINT LeftHandMiddle3
										{
											OFFSET 3.691551 0.000000 0.000000
											CHANNELS 3 Xrotation Yrotation Zrotation
											End Site
											{
												OFFSET -1.082298 3.499527 0.457670
											}
										}
									}
								}
								JOINT LeftHandRing1
								{
									OFFSET 13.966164 -0.268127 -3.067488
									CHANNELS 3 Xrotation Yrotation Zrotation
									JOINT LeftHandRing2
									{
										OFFSET 3.162567 0.000000 0.000000
										CHANNELS 3 Xrotation Yrotation Zrotation
										JOINT LeftHandRing3
										{
											OFFSET 3.324348 0.000000 0.000000
											CHANNELS 3 Xrotation Yrotation Zrotation
											End Site
											{
												OFFSET -0.861900 3.184998 0.405154
											}
										}
									}
								}
								JOINT LeftHandPinky1
								{
									OFFSET 13.131393 -0.168503 -5.746925
									CHANNELS 3 Xrotation Yrotation Zrotation
									JOINT LeftHandPinky2
									{
										OFFSET 2.849182 0.000000 0.000000
										CHANNELS 3 Xrotation Yrotation Zrotation
										JOINT LeftHandPinky3
										{
											OFFSET 2.805038 0.000000 0.000000
											CHANNELS 3 Xrotation Yrotation Zrotation
											End Site
											{
												OFFSET -0.882500 2.642609 0.325652
											}
										}
									}
								}
							}
							JOINT Left_Sleeve
							{
								OFFSET 6.592125 -0.646545 0.805568
								CHANNELS 3 Xrotation Yrotation Zrotation
								End Site
								{
									OFFSET -0.000179 20.275787 -0.000000
								}
							}
						}
					}
				}
				JOINT RightShoulder
				{
					OFFSET -5.731700 15.108002 -2.763700
					CHANNELS 3 Xrotation Yrotation Zrotation
					JOINT RightArm
					{
						OFFSET -9.825497 2.506317 -1.597400
						CHANNELS 3 Xrotation Yrotation Zrotation
						JOINT RightForeArm
						{
							OFFSET -21.966242 0.000000 0.000000
							CHANNELS 3 Xrotation Yrotation Zrotation
							JOINT RightHand
							{
								OFFSET -33.879032 0.000000 0.000000
								CHANNELS 3 Xrotation Yrotation Zrotation
								JOINT RightHandThumb1
								{
									OFFSET -6.715286 -2.359680 3.363841
									CHANNELS 3 Xrotation Yrotation Zrotation
									JOINT RightHandThumb2
									{
										OFFSET -2.507072 -1.447464 1.447461
										CHANNELS 3 Xrotation Yrotation Zrotation
										JOINT RightHandThumb3
										{
											OFFSET -2.898338 -1.673355 1.673357
											CHANNELS 3 Xrotation Yrotation Zrotation
											End Site
											{
												OFFSET 0.295959 3.727692 -0.131651
											}
										}
									}
								}
								JOINT RightHandIndex1
								{
									OFFSET -14.190811 -0.254547 3.840278
									CHANNELS 3 Xrotation Yrotation Zrotation
									JOINT RightHandIndex2
									{
										OFFSET -3.551727 0.000000 -0.000000
										CHANNELS 3 Xrotation Yrotation Zrotation
										JOINT RightHandIndex3
										{
											OFFSET -2.894196 0.000000 0.000000
											CHANNELS 3 Xrotation Yrotation Zrotation
											End Site
											{
												OFFSET 1.000603 2.690872 0.366626
											}
										}
									}
								}
								JOINT RightHandMiddle1
								{
									OFFSET -13.776489 0.000000 0.000000
									CHANNELS 3 Xrotation Yrotation Zrotation
									JOINT RightHandMiddle2
									{
										OFFSET -3.438232 0.000000 0.000000
										CHANNELS 3 Xrotation Yrotation Zrotation
										JOINT RightHandMiddle3
										{
											OFFSET -3.691551 0.000000 0.000000
											CHANNELS 3 Xrotation Yrotation Zrotation
											End Site
											{
												OFFSET 1.082298 3.499527 0.457670
											}
										}
									}
								}
								JOINT RightHandRing1
								{
									OFFSET -13.966164 -0.268127 -3.067488
									CHANNELS 3 Xrotation Yrotation Zrotation
									JOINT RightHandRing2
									{
										OFFSET -3.162567 0.000000 0.000000
										CHANNELS 3 Xrotation Yrotation Zrotation
										JOINT RightHandRing3
										{
											OFFSET -3.324348 0.000000 0.000000
											CHANNELS 3 Xrotation Yrotation Zrotation
											End Site
											{
												OFFSET 0.861900 3.184998 0.405154
											}
										}
									}
								}
								JOINT RightHandPinky1
								{
									OFFSET -13.131393 -0.168503 -5.746925
									CHANNELS 3 Xrotation Yrotation Zrotation
									JOINT RightHandPinky2
									{
										OFFSET -2.849182 0.000000 0.000000
										CHANNELS 3 Xrotation Yrotation Zrotation
										JOINT RightHandPinky3
										{
											OFFSET -2.805038 0.000000 0.000000
											CHANNELS 3 Xrotation Yrotation Zrotation
											End Site
											{
												OFFSET 0.882500 2.642609 0.325652
											}
										}
									}
								}
							}
							JOINT Right_Sleeve
							{
								OFFSET -6.592125 -0.646545 0.805568
								CHANNELS 3 Xrotation Yrotation Zrotation
								End Site
								{
									OFFSET 0.000179 20.275787 -0.000000
								}
							}
						}
					}
				}
				JOINT Bind_Right_JacketString
				{
					OFFSET -3.534800 11.969597 7.200700
					CHANNELS 3 Xrotation Yrotation Zrotation
					JOINT Bind_Right_JacketString1
					{
						OFFSET -0.319900 -6.102600 2.794100
						CHANNELS 3 Xrotation Yrotation Zrotation
						End Site
						{
							OFFSET 0.000000 6.719452 0.000000
						}
					}
				}
				JOINT Bind_Left_JacketString
				{
					OFFSET 2.904800 11.969597 7.200700
					CHANNELS 3 Xrotation Yrotation Zrotation
					JOINT Bind_Left_JacketString1
					{
						OFFSET 0.364800 -5.904503 3.186800
						CHANNELS 3 Xrotation Yrotation Zrotation
						End Site
						{
							OFFSET 0.000000 6.719513 0.000000
						}
					}
				}
				JOINT HairE
				{
					OFFSET 5.915200 17.612701 -11.592200
					CHANNELS 3 Xrotation Yrotation Zrotation
					JOINT HairE1
					{
						OFFSET 0.289200 -7.171898 -1.284500
						CHANNELS 3 Xrotation Yrotation Zrotation
						End Site
						{
							OFFSET 0.000000 7.291756 0.000000
						}
					}
				}
				JOINT HairF
				{
					OFFSET -0.864800 17.612701 -11.592200
					CHANNELS 3 Xrotation Yrotation Zrotation
					JOINT HairF1
					{
						OFFSET 0.000000 -14.087097 -2.127501
						CHANNELS 3 Xrotation Yrotation Zrotation
						End Site
						{
							OFFSET 0.000000 14.246841 0.000000
						}
					}
				}
				JOINT HairG
				{
					OFFSET -8.087700 17.612701 -11.592200
					CHANNELS 3 Xrotation Yrotation Zrotation
					JOINT HairG1
					{
						OFFSET -0.293600 -6.081398 -0.910100
						CHANNELS 3 Xrotation Yrotation Zrotation
						End Site
						{
							OFFSET 0.000000 6.156120 0.000000
						}
					}
				}
			}
		}
	}
	JOINT Pouch
	{
		OFFSET 0.000000 4.394501 10.847300
		CHANNELS 3 Xrotation Yrotation Zrotation
		End Site
		{
			OFFSET 0.000000 21.880577 0.000000
		}
	}
	JOINT Bag
	{
		OFFSET -13.229000 4.813004 -0.593300
		CHANNELS 3 Xrotation Yrotation Zrotation
		End Site
		{
			OFFSET 0.000000 21.880577 0.000000
		}
	}
	JOINT OccupyGuyFacialAnim_Joint
	{
		OFFSET 1.000000 -70.206398 -1.655000
		CHANNELS 3 Xrotation Yrotation Zrotation
		End Site
		{
			OFFSET 0.000000 21.880577 0.000000
		}
	}
}
MOTION
Frames: 4
Frame Time: 0.033333
-0.035199 70.332695 0.122314 2.912484 -28.986175 1.187812 0.000000 -0.000000 -0.000000 -14.990551 18.711979 9.351043 17.124387 13.218473 -0.902262 -4.454089 -4.009207 -5.088978 0.000000 0.000000 -0.000000 -0.000000 0.000000 -0.000000 -5.455812 -1.939470 -9.246409 10.909687 9.735410 0.827863 -8.842341 -1.017129 7.078169 -0.000000 0.000001 0.000000 -0.000000 -0.000001 0.000000 7.835968 -0.366782 -2.679190 1.099246 -0.880563 2.383463 1.108683 -0.590440 2.446369 -3.842149 18.019058 -6.496474 -6.332419 13.021474 0.301591 0.000000 0.000000 -0.000000 0.000000 0.000000 -0.000000 0.000000 0.000000 -0.000000 0.000000 0.000000 -0.000000 -0.000000 0.000000 -0.000000 0.000000 0.000000 -0.000000 -0.000000 0.000000 -0.000000 0.000000 0.000000 -0.000000 0.000000 0.000000 -0.000000 -0.057395 -8.759462 -0.061003 -55.250828 0.329470 -41.449348 11.584381 -65.827266 13.005499 -50.191030 12.352910 4.610791 17.551604 -5.699155 -12.932272 10.850531 26.127681 8.644768 0.000001 0.000001 -0.000001 13.980905 1.201546 -55.004374 0.370796 1.161697 -65.441887 0.000001 0.000001 -0.000002 7.504730 1.174499 -63.778496 1.807795 1.475675 -64.567916 0.000002 0.000000 -0.000001 8.574291 2.179111 -75.148979 -0.207637 1.009268 -57.855049 0.000002 0.000002 0.000004 10.030099 13.637088 -84.750264 0.877121 0.062283 -64.595503 0.000000 -0.000000 0.000003 0.000002 -0.000001 0.000000 4.849283 7.760169 5.560439 -0.933502 -2.176901 61.845608 11.299262 18.943513 -3.987545 -0.459207 6.620110 5.830148 15.788496 -2.734483 -17.205853 -2.198297 -31.113554 7.361291 0.000001 -0.000002 -0.000002 2.371625 -3.659180 8.487457 -2.147359 -2.473141 18.673297 -0.000000 0.000000 0.000000 -1.976277 -5.707902 13.662365 0.283054 -5.105389 26.988121 -0.000001 0.000000 -0.000003 -3.263088 -8.562137 11.769138 4.036064 -4.063314 33.263154 -0.000000 -0.000000 -0.000001 -6.474168 -11.347977 23.260718 10.719400 -2.558790 34.822978 -0.000001 0.000001 -0.000001 -0.000001 -0.000000 0.000002 0.000001 0.000002 -0.000000 0.000001 -0.000000 -0.000000 0.000001 0.000002 -0.000000 0.000001 0.000002 -0.000000 0.000001 0.000002 -0.000000 0.000001 -0.000000 -0.000000 0.000001 0.000002 -0.000000 0.000001 0.000002 -0.000000 0.000001 0.000002 -0.000000 0.000001 -0.000000 -0.000000 0.000000 -0.000000 -0.000000 0.000000 -0.000000 -0.000000 0.000000 -0.000000 -0.000000 
-0.101035 70.129608 0.161513 2.767874 -28.651821 1.149539 0.000000 0.000001 0.000000 -16.153100 19.121992 9.936750 19.374445 12.361457 -1.056376 -5.571634 -4.131865 -5.164059 0.000000 0.000000 0.000000 0.000000 0.000000 -0.000000 -6.684153 -1.548806 -8.935400 14.268473 9.224305 0.283408 -10.971344 -1.178934 6.475384 -0.000000 0.000000 0.000000 0.000000 -0.000001 -0.000001 8.782385 -0.056648 -3.019298 0.657426 -0.770676 2.734121 0.663592 -0.414594 2.778075 -3.008170 18.172132 -7.670103 -6.533966 12.930200 0.769090 0.000000 0.000000 0.000000 0.000000 0.000000 0.000000 0.000000 0.000000 0.000000 0.000000 0.000000 0.000000 -0.000000 0.000000 -0.000000 0.000000 0.000000 0.000000 -0.000000 0.000000 -0.000000 0.000000 0.000000 0.000000 0.000000 0.000000 0.000000 0.012657 -8.970055 -0.580719 -55.143539 0.800391 -38.862007 7.986492 -67.195415 9.100886 -46.696214 13.165138 4.774139 17.551605 -5.699155 -12.932272 10.850527 26.127683 8.644768 0.000001 0.000001 -0.000000 13.980905 1.201545 -55.004374 0.370802 1.161699 -65.441880 0.000001 0.000000 0.000002 7.504729 1.174502 -63.778496 1.807791 1.475678 -64.567923 0.000001 -0.000001 0.000004 8.574289 2.179111 -75.148979 -0.207640 1.009270 -57.855042 -0.000000 0.000000 -0.000002 10.030099 13.637091 -84.750264 0.877121 0.062283 -64.595510 0.000000 -0.000001 -0.000001 -0.000000 0.000003 0.000001 4.902309 7.361442 4.988576 -2.390313 -1.925097 58.273583 11.712646 23.670024 -4.605119 -0.668441 4.796661 6.213766 15.788496 -2.734484 -17.205854 -2.198299 -31.113554 7.361291 -0.000000 0.000001 0.000006 2.371620 -3.659176 8.487541 -2.147363 -2.473149 18.673365 0.000000 0.000000 0.000002 -1.976263 -5.707899 13.662445 0.283051 -5.105381 26.988196 0.000001 0.000000 -0.000004 -3.263087 -8.562137 11.769213 4.036058 -4.063325 33.263192 -0.000000 -0.000001 -0.000002 -6.474164 -11.347960 23.260822 10.719410 -2.558807 34.823054 -0.000001 0.000000 0.000001 0.000000 0.000000 -0.000000 0.000001 0.000001 0.000000 0.000001 0.000001 -0.000000 0.000001 0.000001 -0.000000 0.000001 0.000001 -0.000000 0.000001 0.000001 0.000000 0.000001 0.000001 -0.000000 0.000001 0.000001 -0.000000 0.000001 0.000001 -0.000000 0.000001 0.000001 0.000000 0.000001 0.000001 -0.000000 0.000000 0.000001 0.000000 0.000000 0.000001 0.000000 0.000000 0.000001 0.000000 
-0.232219 69.901611 0.227080 2.654149 -27.940671 1.214047 0.000000 -0.000001 -0.000000 -17.187488 18.944645 10.321909 21.506237 11.904619 -1.231143 -6.609370 -4.420232 -5.284954 0.000000 -0.000000 -0.000000 0.000000 0.000001 -0.000001 -7.814223 -1.314543 -8.721483 17.537639 8.367856 -0.251250 -12.945218 -1.389787 6.222084 -0.000000 -0.000001 -0.000000 0.000000 0.000000 -0.000001 9.979225 -0.018610 -3.363974 0.031326 -0.795076 2.847467 0.040112 -0.411317 2.900186 -2.763826 18.486260 -8.093397 -5.982844 13.210985 1.127215 -0.000000 -0.000000 0.000000 -0.000000 -0.000000 0.000000 -0.000000 -0.000000 0.000000 -0.000000 -0.000000 0.000000 -0.000000 -0.000000 -0.000000 -0.000000 -0.000000 0.000000 -0.000000 -0.000000 -0.000000 -0.000000 -0.000000 0.000000 -0.000000 -0.000000 0.000000 0.051658 -8.329004 -0.582208 -54.100019 1.965518 -35.210233 2.348613 -70.035974 2.983592 -42.930184 14.028433 5.536562 17.551604 -5.699156 -12.932274 10.850530 26.127681 8.644772 0.000003 -0.000000 0.000000 13.980905 1.201543 -55.004374 0.370802 1.161696 -65.441893 0.000002 0.000000 0.000003 7.504729 1.174500 -63.778496 1.807795 1.475676 -64.567923 0.000001 0.000002 -0.000001 8.574289 2.179111 -75.148979 -0.207638 1.009269 -57.855042 -0.000001 0.000000 -0.000002 10.030099 13.637089 -84.750264 0.877121 0.062285 -64.595503 0.000001 -0.000001 0.000006 -0.000002 -0.000002 -0.000000 4.801447 7.827615 5.366918 -3.348235 -0.542817 53.553427 12.712418 28.526690 -5.538133 -1.440432 2.299619 6.776430 15.788496 -2.734483 -17.205851 -2.198299 -31.113554 7.361295 0.000000 -0.000001 -0.000001 2.371612 -3.659169 8.487332 -2.147356 -2.473150 18.673184 -0.000001 -0.000001 0.000004 -1.976267 -5.707898 13.662205 0.283045 -5.105387 26.988005 -0.000001 -0.000000 0.000001 -3.263078 -8.562135 11.769026 4.036039 -4.063313 33.262956 -0.000000 -0.000000 -0.000002 -6.474166 -11.347960 23.260587 10.719403 -2.558802 34.822859 0.000001 -0.000000 0.000000 0.000000 -0.000001 -0.000002 -0.000000 0.000001 -0.000001 -0.000000 0.000001 -0.000001 -0.000000 0.000001 -0.000000 -0.000000 0.000001 -0.000000 -0.000000 0.000001 -0.000001 -0.000000 0.000001 -0.000000 -0.000000 0.000001 -0.000000 -0.000000 0.000001 -0.000000 -0.000000 0.000001 -0.000001 -0.000000 0.000001 -0.000000 0.000000 -0.000001 -0.000000 0.000000 -0.000001 -0.000000 0.000000 -0.000001 -0.000000 
-0.398787 69.688042 0.326760 2.432676 -26.351556 1.347411 0.000000 0.000000 -0.000000 -17.704414 17.363982 10.088548 23.141929 12.028965 -1.399685 -7.326331 -4.643086 -5.478591 -0.000000 -0.000000 0.000000 0.000002 -0.000000 -0.000001 -8.424483 -1.675190 -8.858350 20.206918 7.122417 -0.458656 -14.631826 -1.572277 6.251278 0.000000 0.000002 0.000000 0.000000 -0.000001 -0.000000 11.409298 -0.090891 -3.724322 -0.597778 -0.878340 2.927691 -0.582939 -0.468356 3.000190 -2.573981 18.448457 -8.059684 -5.861635 13.485168 0.954446 0.000000 0.000000 0.000000 0.000000 0.000000 0.000000 0.000000 0.000000 0.000000 0.000000 0.000000 0.000000 0.000000 0.000001 -0.000000 0.000000 0.000000 0.000000 0.000000 0.000001 -0.000000 0.000000 0.000000 0.000000 0.000000 0.000000 0.000000 0.041117 -6.996543 -0.758686 -53.532659 3.904428 -31.070814 -7.355481 -74.224916 -7.468598 -38.885889 14.944416 6.141670 17.551604 -5.699155 -12.932269 10.850529 26.127678 8.644771 0.000000 0.000001 -0.000000 13.980905 1.201546 -55.004377 0.370798 1.161696 -65.441887 0.000003 0.000000 0.000002 7.504729 1.174501 -63.778503 1.807795 1.475678 -64.567916 -0.000001 -0.000001 -0.000001 8.574291 2.179109 -75.148979 -0.207637 1.009270 -57.855042 0.000001 0.000001 -0.000004 10.030098 13.637090 -84.750271 0.877120 0.062282 -64.595503 -0.000000 0.000000 -0.000001 -0.000000 0.000001 -0.000000 4.603348 8.576952 6.031890 -3.525575 2.224797 48.435815 15.844012 33.290041 -8.162845 -3.194711 -0.817933 7.086133 15.788500 -2.734482 -17.205854 -2.198298 -31.113557 7.361293 0.000000 0.000000 0.000001 2.371634 -3.659168 8.487124 -2.147376 -2.473140 18.672981 0.000001 0.000000 -0.000001 -1.976260 -5.707906 13.662023 0.283021 -5.105376 26.987773 0.000001 0.000000 -0.000001 -3.263089 -8.562139 11.768798 4.036061 -4.063305 33.262765 0.000001 -0.000001 -0.000001 -6.474177 -11.347966 23.260387 10.719399 -2.558797 34.822661 -0.000002 0.000001 -0.000001 0.000000 0.000002 0.000002 -0.000001 0.000000 -0.000000 0.000000 0.000002 -0.000001 -0.000001 0.000000 0.000000 -0.000001 0.000000 0.000000 -0.000001 0.000000 -0.000000 0.000000 0.000002 -0.000000 -0.000001 0.000000 0.000000 -0.000001 0.000000 0.000000 -0.000001 0.000000 -0.000000 0.000000 0.000002 -0.000000 0.000000 0.000000 -0.000000 0.000000 0.000000 -0.000000 0.000000 0.000000 -0.000000 
